<svg width="67px"
     height="57px"
     viewBox="0 0 87 72"
     version="1.1"
     xmlns="http://www.w3.org/2000/svg">
  <g fill-rule="nonzero"
     stroke="none">
    <path d="M35.8823756,0 C37.6118968,0 38.3300878,1.27602638 38.8689055,2.47568557 C45.1825651,16.5536306 51.5073919,30.6267159 57.8315207,44.6998012 L57.8315207,44.6998012 L66.4393434,63.8568588 C66.5838191,64.1755183 66.7038666,64.5045915 66.8315915,64.8524094 C66.8909173,65.0134747 66.951639,65.1793998 67.0165484,65.3501846 L67.0165484,65.3501846 L67.1582323,65.7188299 L66.7715678,65.8111648 C66.2816066,65.9277983 65.8286368,66 65.4105645,66 C64.5130002,66 63.7780584,65.6549591 63.177821,64.7052289 C61.3380237,60.5925084 59.4961325,56.4811764 57.6563352,52.3684559 C54.7696122,45.8744675 51.8661384,39.3957525 49.0205945,33.0544984 C47.9869299,30.7509861 46.9546613,28.4474739 45.9223926,26.1432674 L45.9223926,26.1432674 L44.9620128,23.9973492 C44.0930645,22.0597053 43.2303978,20.1394175 42.3712208,18.2295434 C42.3188745,18.1024961 42.2609446,17.9733662 42.1967332,17.8421534 C41.255896,15.7517751 40.3241322,13.6850011 39.4007437,11.6411373 C39.3023327,11.3363628 39.158555,11.02534 38.9798796,10.708069 C38.1660694,8.90719177 37.3578428,7.12228218 36.5614814,5.36791947 C36.4449237,4.93054372 36.257175,4.49525072 35.9786928,4.04676702 L35.9786928,4.04676702 L35.8760941,4.25156995 C35.6346032,4.73268327 35.4063734,5.1860267 35.1928006,5.6463126 L35.1928006,5.6463126 L30.3148251,16.1586039 C23.0833607,31.7402884 15.6055197,47.853072 8.3098439,63.7263404 C7.43042636,65.6410742 6.32208108,66.1548171 4.35735062,65.5598473 L4.35735062,65.5598473 L4,65.4508505 L4.13330853,65.1037268 C4.19821792,64.9336363 4.26033551,64.761463 4.3224531,64.5885954 C4.45994933,64.2074537 4.60233122,63.8138155 4.77891268,63.433368 L4.77891268,63.433368 L18.5103894,33.8508 C23.3778957,23.36489 28.2461,12.8796743 33.1115124,2.3923759 C33.6363711,1.2600587 34.2086905,0.0270756414 35.8230498,0 L35.8230498,0 Z M45.9824309,0.397579288 C46.8736122,-0.0131438353 47.5644886,-0.10279406 48.1618893,0.115424317 C48.8366007,0.364221064 49.3742614,0.995942416 49.9048938,2.16348023 C51.7427796,6.2060799 53.5708258,10.2535443 55.3981692,14.3010087 C56.6674701,17.112829 57.9367709,19.9246492 59.2095859,22.7350795 L59.2095859,22.7350795 L67.5113475,41.0508289 C70.9565927,48.652334 74.4025407,56.2531442 77.8449745,63.8553442 C77.9897563,64.1743322 78.1078308,64.5065245 78.2287166,64.8470564 C78.2828341,65.0006432 78.3383572,65.15562 78.3966917,65.3126816 L78.3966917,65.3126816 L78.5267142,65.6587732 L78.1696794,65.7657975 C77.6552119,65.9200793 77.2004845,66 76.7949549,66 C75.6556765,66 74.9022488,65.3710585 74.2865746,63.9998965 C67.1515014,48.1144327 59.8421278,31.9871217 52.7724173,16.3900675 L52.7724173,16.3900675 L46.3127583,2.13290186 C46.1799245,1.8410174 46.0674726,1.54009843 45.9557236,1.24056939 L45.9557236,1.24056939 L45.6844333,0.534486995 Z M40.3640338,0.285528489 C42.4043442,-0.386006256 43.363626,0.0790628377 44.3166105,2.19307646 C45.7852702,5.4513408 47.2483323,8.71169065 48.7106947,11.9720405 C49.9715449,14.7847005 51.2330949,17.5973605 52.498843,20.4086302 C56.9929836,30.3926696 61.4899229,40.3760138 65.9868623,50.3593579 L65.9868623,50.3593579 L72.1070939,63.9464662 C72.2253423,64.2092407 72.3393926,64.4741007 72.464638,64.7632916 L72.464638,64.7632916 L72.8424733,65.6350355 L72.4765328,65.7532145 C71.9545604,65.9214457 71.5004584,66 71.1016323,66 C69.751221,66 69.0312349,65.10323 68.4371939,63.7733687 C62.1406392,49.687128 55.6908513,35.3867748 49.4537707,21.5556616 L49.4537707,21.5556616 L42.8605453,6.93135889 C42.2301202,5.53198058 41.6185868,4.12426023 41.0063538,2.7137592 L41.0063538,2.7137592 L40.0001924,0.405097823 Z M38.2588983,15.7142857 C38.822055,16.9766583 39.4031773,18.2815279 40.0001924,19.6219279 L40.0001924,19.6219279 L35.5702573,29.2966342 C30.3878344,40.60713 25.0299001,52.3021897 19.8239835,63.8349244 C18.920169,65.837861 17.7365036,66.3910199 15.7402343,65.7417201 L15.7402343,65.7417201 L15.3684818,65.6211956 L21.745626,51.6995671 C23.1676828,48.5917061 24.5862847,45.4831485 26.0048866,42.3745909 C29.9981162,33.6250672 34.1240158,24.588514 38.2588983,15.7142857 Z M35.729077,9.42857143 L37.4738631,13.3253857 C36.2750598,15.8880365 35.3828947,17.8057373 34.7973681,19.0784881 L34.7973681,19.0784881 L31.0746951,27.1717647 C25.4504479,39.3940654 19.635419,52.032119 13.9750968,64.4887153 C13.2313947,66.1246126 12.0839289,66.047441 10.8663942,65.9640124 C10.6554937,65.9494123 10.4355743,65.9348123 10.2066361,65.9271647 L10.2066361,65.9271647 L9.68424091,65.9097837 L17.0324617,49.942926 C18.6003411,46.5341694 20.1654455,43.1240224 21.7312437,39.7138753 C24.7721898,33.0877846 29.4381342,22.9926833 35.729077,9.42857143 L35.729077,9.42857143 Z M41.3730884,22 C41.9577864,23.2921221 42.5523231,24.6086897 43.1581041,25.9469092 L43.1581041,25.9469092 L40.4018712,31.8787973 C35.4544261,42.5216927 30.3383181,53.5263823 25.385251,64.385097 C24.5784801,66.154955 23.367621,66.0578713 22.0843775,65.9496124 C21.9150118,65.9363419 21.740024,65.9216746 21.5594142,65.9111979 L21.5594142,65.9111979 L21.0527227,65.8804664 L22.0091819,63.7397344 C22.5299286,62.5684432 23.0359173,61.4299788 23.5608806,60.2991974 L23.5608806,60.2991974 L26.8336436,53.2428138 C31.5857208,42.995238 36.4910002,32.4207901 41.3730884,22 Z M51.6907483,0.246284211 C53.8205229,-0.308115789 54.7731332,0.189315789 55.7640991,2.37634737 C58.494311,8.40110526 61.3437736,14.7308526 64.2343812,21.1891263 C70.3475454,34.8525158 76.4502491,48.5207684 82.5529528,62.1890211 L82.5529528,62.1890211 L82.9741656,63.1324737 C83.1764035,63.5854421 83.3598124,64.0460526 83.5564713,64.5393158 L83.5564713,64.5393158 L84,65.6356105 L83.6310901,65.7446842 C83.1115479,65.8989158 82.6533744,65.9781158 82.2447143,65.9781158 C81.1031161,65.9781158 80.353441,65.3563263 79.7488194,64.0022842 C72.7144265,48.2359263 65.5126643,32.2271053 58.5487061,16.7455895 L58.5487061,16.7455895 L51.9194864,2.00535789 C51.785591,1.7094 51.6851694,1.40302105 51.5875373,1.10567368 L51.519805,0.901768421 L51.519805,0.901768421 L51.4494576,0.697863158 L51.3232332,0.341463158 Z"
          id="A-logo"
          fill="#2c3dbe"></path>

  </g>
</svg>
