<?xml version="1.0" encoding="UTF-8"?>
<svg width="30px" height="30px" viewBox="0 0 30 30" version="1.1" xmlns="http://www.w3.org/2000/svg" xmlns:xlink="http://www.w3.org/1999/xlink">
    <title>B9FF73DC-9FF0-43BF-9E57-E0052FE105BE</title>
    <defs>
        <filter id="filter-1">
            <feColorMatrix in="SourceGraphic" type="matrix" values="0 0 0 0 0.670588 0 0 0 0 0.698039 0 0 0 0 0.729412 0 0 0 1.000000 0"></feColorMatrix>
        </filter>
        <path d="M14.4818333,0 C6.49658333,0 0,6.49658333 0,14.4818333 C0,22.4665 6.49658333,28.9636667 14.4818333,28.9636667 C22.4665,28.9636667 28.9636667,22.4665 28.9636667,14.4818333 C28.9636667,6.49658333 22.4676667,0 14.4818333,0 Z M18.0833333,14.9916667 L15.72725,14.9916667 L15.72725,23.3893333 L12.236,23.3893333 L12.236,14.9916667 L10.5764167,14.9916667 L10.5764167,12.0236667 L12.236,12.0236667 L12.236,10.1039167 C12.236,8.729 12.8893333,6.58058333 15.7593333,6.58058333 L18.3464167,6.5905 L18.3464167,9.47158333 L16.4686667,9.47158333 C16.163,9.47158333 15.7284167,9.62441667 15.7284167,10.2800833 L15.7284167,12.02425 L18.3884167,12.02425 L18.0833333,14.9916667 Z" id="path-2"></path>
    </defs>
    <g id="Page-1" stroke="none" stroke-width="1" fill="none" fill-rule="evenodd">
        <g id="Footer-[D]" transform="translate(-715.000000, -976.000000)">
            <g id="#1" transform="translate(132.000000, 967.000000)" filter="url(#filter-1)">
                <g transform="translate(583.916667, 9.916667)">
                    <mask id="mask-3" fill="white">
                        <use xlink:href="#path-2"></use>
                    </mask>
                    <use id="Shape" fill="#000000" fill-rule="nonzero" xlink:href="#path-2"></use>
                    <g id="↪🎨" mask="url(#mask-3)" fill="#EDF1F2">
                        <g transform="translate(-2.916667, -2.916667)" id="Rectangle-Copy-18">
                            <rect x="0" y="0" width="35" height="35"></rect>
                        </g>
                    </g>
                </g>
            </g>
        </g>
    </g>
</svg>