<?xml version="1.0" encoding="UTF-8"?>
<svg width="30px" height="30px" viewBox="0 0 30 30" version="1.1" xmlns="http://www.w3.org/2000/svg" xmlns:xlink="http://www.w3.org/1999/xlink">
    <title>9E211F45-91DF-437A-9420-FE3EA352DA57</title>
    <defs>
        <filter id="filter-1">
            <feColorMatrix in="SourceGraphic" type="matrix" values="0 0 0 0 0.670588 0 0 0 0 0.698039 0 0 0 0 0.729412 0 0 0 1.000000 0"></feColorMatrix>
        </filter>
        <path d="M14.4818333,0 C22.4676667,0 28.9636667,6.49658333 28.9636667,14.4818333 C28.9636667,22.4665 22.4665,28.9636667 14.4818333,28.9636667 C6.49658333,28.9636667 0,22.4665 0,14.4818333 C0,6.49658333 6.49658333,0 14.4818333,0 Z M19.5340833,6.24633333 L9.429,6.24633333 C7.67316667,6.24633333 6.24575,7.67375 6.24575,9.42958333 L6.24575,9.42958333 L6.24575,19.53525 C6.24575,21.2916667 7.67316667,22.7190833 9.429,22.7190833 L9.429,22.7190833 L19.5346667,22.7190833 C21.2899167,22.7190833 22.7179167,21.2916667 22.7179167,19.53525 L22.7179167,19.53525 L22.7179167,9.42958333 C22.7179167,7.67375 21.2899167,6.24633333 19.5340833,6.24633333 L19.5340833,6.24633333 Z M10.3086667,12.7919167 C10.0963333,13.3134167 9.97733333,13.8845 9.97733333,14.4818333 C9.97733333,16.9650833 11.9974167,18.9869167 14.4818333,18.9869167 C16.96625,18.9869167 18.9869167,16.9650833 18.9869167,14.4818333 C18.9869167,13.8845 18.8661667,13.3134167 18.6520833,12.7919167 L18.6520833,12.7919167 L21.112,12.7919167 L21.112,19.53525 C21.112,20.40675 20.40325,21.1125833 19.5335,21.1125833 L19.5335,21.1125833 L9.42841667,21.1125833 C8.5575,21.1125833 7.84991667,20.40675 7.84991667,19.53525 L7.84991667,19.53525 L7.84991667,12.7919167 Z M14.483,11.5826667 C15.4501667,11.5826667 16.3065,12.0615833 16.83325,12.7919167 C17.1750833,13.2679167 17.3815833,13.8506667 17.3815833,14.4818333 C17.3815833,16.08075 16.079,17.381 14.48125,17.381 C12.8829167,17.381 11.5815,16.0801667 11.58325,14.48125 C11.5838333,13.8500833 11.7885833,13.2673333 12.1315833,12.7913333 C12.6595,12.061 13.51525,11.5826667 14.483,11.5826667 Z M20.8121667,8.14333333 L20.8121667,10.9351667 L18.0290833,10.9445 L18.01975,8.15208333 L20.44875,8.1445 L20.8121667,8.14333333 Z" id="path-2"></path>
    </defs>
    <g id="Page-1" stroke="none" stroke-width="1" fill="none" fill-rule="evenodd">
        <g id="Footer-[D]" transform="translate(-813.000000, -976.000000)">
            <g id="#3" transform="translate(132.000000, 967.000000)" filter="url(#filter-1)">
                <g transform="translate(681.916667, 9.916667)">
                    <mask id="mask-3" fill="white">
                        <use xlink:href="#path-2"></use>
                    </mask>
                    <use id="Combined-Shape" fill="#000000" fill-rule="nonzero" xlink:href="#path-2"></use>
                    <g id="↪🎨" mask="url(#mask-3)" fill="#EDF1F2">
                        <g transform="translate(-2.916667, -2.916667)" id="Rectangle-Copy-18">
                            <rect x="0" y="0" width="35" height="35"></rect>
                        </g>
                    </g>
                </g>
            </g>
        </g>
    </g>
</svg>