<?xml version="1.0" encoding="UTF-8"?>
<svg width="30px" height="30px" viewBox="0 0 30 30" version="1.1" xmlns="http://www.w3.org/2000/svg" xmlns:xlink="http://www.w3.org/1999/xlink">
    <title>F246C266-92B8-4980-9644-6CA236158E1A</title>
    <defs>
        <filter id="filter-1">
            <feColorMatrix in="SourceGraphic" type="matrix" values="0 0 0 0 0.670588 0 0 0 0 0.698039 0 0 0 0 0.729412 0 0 0 1.000000 0"></feColorMatrix>
        </filter>
        <path d="M14.4818333,0 C6.49658333,0 0,6.49658333 0,14.4818333 C0,22.4665 6.49658333,28.9636667 14.4818333,28.9636667 C22.4665,28.9636667 28.9636667,22.4665 28.9636667,14.4818333 C28.9636667,6.49658333 22.4676667,0 14.4818333,0 Z M23.5362291,20.6871944 L20.2624437,20.6871944 L20.2624437,15.1513051 C20.2624437,13.8310708 20.2417498,12.1328813 18.5613997,12.1328813 C16.8582863,12.1328813 16.5982322,13.5716459 16.5982322,15.0566299 L16.5982322,20.6871944 L13.3278958,20.6871944 L13.3278958,9.30306232 L16.4664806,9.30306232 L16.4664806,10.8596118 L16.5113175,10.8596118 C16.9479602,9.96429767 18.0157688,9.02052771 19.6085144,9.02052771 C22.9236877,9.02052771 23.5362291,11.3777162 23.5362291,14.4438504 L23.5362291,20.6871944 Z M10.4112291,20.6871944 L7.49456245,20.6871944 L7.49456245,9.02052771 L10.4112291,9.02052771 L10.4112291,20.6871944 Z" id="path-2"></path>
    </defs>
    <g id="Page-1" stroke="none" stroke-width="1" fill="none" fill-rule="evenodd">
        <g id="Footer-[D]" transform="translate(-666.000000, -976.000000)">
            <g id="#1-copy" transform="translate(132.000000, 967.000000)" filter="url(#filter-1)">
                <g transform="translate(534.916667, 9.916667)">
                    <mask id="mask-3" fill="white">
                        <use xlink:href="#path-2"></use>
                    </mask>
                    <use id="Shape" fill="#000000" fill-rule="nonzero" xlink:href="#path-2"></use>
                    <path d="M18.0833333,14.9916667 L15.72725,14.9916667 L15.72725,23.3893333 L12.236,23.3893333 L12.236,14.9916667 L10.5764167,14.9916667 L10.5764167,12.0236667 L12.236,12.0236667 L12.236,10.1039167 C12.236,8.729 12.8893333,6.58058333 15.7593333,6.58058333 L18.3464167,6.5905 L18.3464167,9.47158333 L16.4686667,9.47158333 C16.163,9.47158333 15.7284167,9.62441667 15.7284167,10.2800833 L15.7284167,12.02425 L18.3884167,12.02425 L18.0833333,14.9916667 Z" id="Path" fill="#000000" fill-rule="nonzero" mask="url(#mask-3)"></path>
                    <g id="Group" mask="url(#mask-3)" fill="#1B2430">
                        <g transform="translate(1.458333, 1.458333)" id="Path">
                            <path d="M2.96336865,5.92350924 C1.32243285,5.92350924 3.30530475e-13,4.59677229 3.30530475e-13,2.96121661 C3.30530475e-13,1.32673695 1.32243285,3.40753067e-15 2.96336865,3.40753067e-15 C4.59677229,3.40753067e-15 5.92350924,1.32673695 5.92350924,2.96121661 C5.92350924,4.59677229 4.59677229,5.92350924 2.96336865,5.92350924 L2.96336865,5.92350924 Z"></path>
                        </g>
                    </g>
                    <g id="↪🎨" mask="url(#mask-3)" fill="#EDF1F2">
                        <g transform="translate(-2.916667, -2.916667)" id="Rectangle-Copy-18">
                            <rect x="0" y="0" width="35" height="35"></rect>
                        </g>
                    </g>
                </g>
            </g>
        </g>
    </g>
</svg>