<?xml version="1.0" encoding="UTF-8"?>
<svg width="30px" height="30px" viewBox="0 0 30 30" version="1.1" xmlns="http://www.w3.org/2000/svg" xmlns:xlink="http://www.w3.org/1999/xlink">
    <title>2CFE5599-611D-434E-9337-73C809326A29</title>
    <defs>
        <filter id="filter-1">
            <feColorMatrix in="SourceGraphic" type="matrix" values="0 0 0 0 0.670588 0 0 0 0 0.698039 0 0 0 0 0.729412 0 0 0 1.000000 0"></feColorMatrix>
        </filter>
        <path d="M14.4795723,0 C22.4764192,0 28.9591445,6.48272532 28.9591445,14.4795723 C28.9591445,22.4764192 22.4764192,28.9591445 14.4795723,28.9591445 C6.48272532,28.9591445 0,22.4764192 0,14.4795723 C0,6.48272532 6.48272532,0 14.4795723,0 Z M18.1581858,8.78303835 C16.2471239,8.78303835 14.6971608,10.3330015 14.6971608,12.2440634 C14.6971608,12.5153392 14.7278761,12.7793879 14.7872419,13.032854 C11.9108407,12.8885693 9.3604351,11.510767 7.65328171,9.41618732 C7.35542035,9.92724926 7.18455015,10.5221976 7.18455015,11.1563791 C7.18455015,12.3568584 7.7960177,13.4166667 8.72418879,14.0371681 C8.15711652,14.0193584 7.6230826,13.8637168 7.15667404,13.6037979 L7.15641593,13.647677 L7.15641593,13.647677 C7.15641593,15.3246313 8.34992625,16.7233407 9.93292773,17.0410767 C9.64280973,17.1205752 9.33643068,17.1626475 9.02127581,17.1626475 C8.79775074,17.1626475 8.58119469,17.1412242 8.370059,17.1009587 C8.81039823,18.4756637 10.0883112,19.4763643 11.6031711,19.5044985 C10.4184366,20.4329277 8.92629056,20.9860619 7.30431416,20.9860619 C7.0255531,20.9860619 6.74937316,20.9698009 6.47912979,20.9375369 C8.00999263,21.9199115 9.82968289,22.4926622 11.7841077,22.4926622 C18.1501844,22.4926622 21.6316003,17.2189159 21.6316003,12.6449115 C21.6316003,12.4949484 21.6282448,12.3455015 21.6215339,12.1973451 C22.2983038,11.7095133 22.8849926,11.1001106 23.3488201,10.4060472 C22.7283186,10.6811947 22.0608407,10.8672935 21.3608407,10.9504056 C22.0755531,10.5221976 22.6240413,9.84465339 22.8829277,9.0359882 C22.2141593,9.43270649 21.4731195,9.72050147 20.6851032,9.87562684 C20.0537611,9.20324484 19.1542404,8.78303835 18.1581858,8.78303835 Z" id="path-2"></path>
    </defs>
    <g id="Page-1" stroke="none" stroke-width="1" fill="none" fill-rule="evenodd">
        <g id="Footer-[D]" transform="translate(-764.000000, -976.000000)">
            <g id="#2" transform="translate(132.000000, 967.000000)" filter="url(#filter-1)">
                <g transform="translate(632.916667, 9.916667)">
                    <mask id="mask-3" fill="white">
                        <use xlink:href="#path-2"></use>
                    </mask>
                    <use id="Combined-Shape" fill="#55ACEE" fill-rule="nonzero" xlink:href="#path-2"></use>
                    <g id="↪🎨" mask="url(#mask-3)" fill="#EDF1F2">
                        <g transform="translate(-2.916667, -2.916667)" id="Rectangle-Copy-18">
                            <rect x="0" y="0" width="35" height="35"></rect>
                        </g>
                    </g>
                </g>
            </g>
        </g>
    </g>
</svg>